{"accessors":[{"bufferView":0,"byteOffset":0,"componentType":5126,"count":200,"max":[0.9980267286300659,1.0,2.0],"min":[-0.9980267286300659,-1.0,-2.0],"type":"VEC3"},{"bufferView":1,"byteOffset":0,"componentType":5126,"count":200,"type":"VEC3"},{"bufferView":2,"byteOffset":0,"componentType":5126,"count":200,"normalized":false,"type":"VEC2"},{"bufferView":3,"byteOffset":0,"componentType":5125,"count":588,"type":"SCALAR"}],"asset":{"generator":"VTK","version":"2.0"},"bufferViews":[{"buffer":0,"byteLength":2400,"byteOffset":0,"target":34962},{"buffer":1,"byteLength":2400,"byteOffset":0,"target":34962},{"buffer":2,"byteLength":1600,"byteOffset":0,"target":34962},{"buffer":3,"byteLength":2352,"byteOffset":0,"target":34963}],"buffers":[{"byteLength":2400,"uri":"data:application/octet-stream;base64,"},{"byteLength":2400,"uri":"data:application/octet-stream;base64,"},{"byteLength":1600,"uri":"data:application/octet-stream;base64,"},{"byteLength":2352,"uri":"data:application/octet-stream;base64,"}],"cameras":[{"perspective":{"aspectRatio":1.3333333333333333,"yfov":0.5235987755982988,"zfar":1000.01,"znear":0.01},"type":"perspective"}],"materials":[{"pbrMetallicRoughness":{"baseColorFactor":[0.5019607843137255,0.5019607843137255,0.5019607843137255,1.0],"metallicFactor":0.0,"roughnessFactor":1.0}}],"meshes":[{"name":"mesh0","primitives":[{"attributes":{"NORMAL":1,"POSITION":0,"TEXCOORD_0":2},"indices":3,"material":0,"mode":4}]}],"nodes":[{"matrix":[2.2204460492503136e-16,-2.2204460492503126e-16,1.0,0.0,1.0,2.220446049250313e-16,-2.220446049250313e-16,0.0,-2.2204460492503126e-16,1.0,2.220446049250313e-16,0.0,0.0,0.0,0.0,1.0],"mesh":0,"name":"mesh0"},{"camera":0,"matrix":[1.0,-0.0,0.0,-0.0,-0.0,1.0,-0.0,0.0,0.0,-0.0,1.0,-0.0,-0.0,0.0,1.0,1.0],"name":"Camera Node"},{"children":[0,1],"name":"Renderer Node"}],"scene":0,"scenes":[{"name":"Layer 0","nodes":[2]}]}